<svg xmlns="http://www.w3.org/2000/svg" viewBox="0 0 241 202.69"><title>Asset 7</title><g id="Layer_2" data-name="Layer 2"><g id="Layer_1-2" data-name="Layer 1"><path d="M1.2,195.27l86.42-92a4.3,4.3,0,0,0,0-6L1.82,7.45A4.43,4.43,0,0,1,5.27,0h46a4.77,4.77,0,0,1,3.44,1.45l66.59,69.72a4.81,4.81,0,0,0,7-.15L189.05,1.6A4.78,4.78,0,0,1,192.64,0h34.25a4.44,4.44,0,0,1,3.58,7.31L151.56,97.15a4.31,4.31,0,0,0,.12,5.86l88.09,92.23a4.43,4.43,0,0,1-3.45,7.45h-46a4.81,4.81,0,0,1-3.45-1.45l-69.14-72.4a4.82,4.82,0,0,0-6.92,0L43,201.21a4.79,4.79,0,0,1-3.48,1.48H4.68A4.43,4.43,0,0,1,1.2,195.27Z"/></g></g></svg>