<?xml version="1.0" encoding="utf-8"?>
<!-- Generator: Adobe Illustrator 22.0.1, SVG Export Plug-In . SVG Version: 6.00 Build 0)  -->
<svg version="1.1" id="Layer_1" xmlns="http://www.w3.org/2000/svg" xmlns:xlink="http://www.w3.org/1999/xlink" x="0px" y="0px"
	 viewBox="0 0 80 120" style="enable-background:new 0 0 80 120;" xml:space="preserve">
<style type="text/css">
	.st0{fill:#6B6B6B;}
	.st1{opacity:0.22;}
	.st2{fill:#939292;}
	.st3{fill:#C4C2C2;}
</style>
<g>
	<rect x="-1.5" y="-3.5" class="st0" width="84" height="128"/>
	<path d="M82-3v127H-1V-3H82 M83-4H-2v129h85V-4L83-4z"/>
</g>
<g class="st1">
	<path class="st2" d="M21.8,51.3v6H21v-6H21.8z"/>
	<path class="st2" d="M28.1,54.6c0-0.8-0.1-1.8-0.1-2.6h0c-0.2,0.7-0.5,1.4-0.8,2.3l-1.1,2.9h-0.6l-1-2.8c-0.3-0.8-0.5-1.6-0.7-2.3
		h0c0,0.7-0.1,1.7-0.1,2.6l-0.2,2.6H23l0.4-6h1l1,2.9c0.2,0.7,0.5,1.4,0.6,2h0c0.2-0.6,0.4-1.3,0.6-2l1.1-2.9h1l0.4,6h-0.8
		L28.1,54.6z"/>
	<path class="st2" d="M31.1,55.4l-0.6,1.9h-0.8l2-6h0.9l2,6h-0.8l-0.6-1.9H31.1z M33,54.8L32.5,53c-0.1-0.4-0.2-0.7-0.3-1.1h0
		c-0.1,0.4-0.2,0.7-0.3,1.1l-0.6,1.7H33z"/>
	<path class="st2" d="M39.9,57c-0.3,0.1-1,0.3-1.8,0.3c-0.9,0-1.6-0.2-2.2-0.8c-0.5-0.5-0.8-1.3-0.8-2.2c0-1.8,1.2-3.1,3.2-3.1
		c0.7,0,1.2,0.2,1.5,0.3l-0.2,0.6c-0.3-0.1-0.7-0.3-1.3-0.3c-1.4,0-2.4,0.9-2.4,2.4c0,1.5,0.9,2.4,2.3,2.4c0.5,0,0.8-0.1,1-0.2v-1.8
		H38v-0.6h2V57z"/>
	<path class="st2" d="M44.2,54.4h-2.3v2.1h2.6v0.6h-3.3v-6h3.2v0.6h-2.4v1.9h2.3V54.4z"/>
	<path class="st2" d="M45.5,57.2v-6h0.8l1.9,3c0.4,0.7,0.8,1.3,1.1,1.9l0,0c-0.1-0.8-0.1-1.5-0.1-2.4v-2.5h0.7v6h-0.8l-1.9-3
		c-0.4-0.7-0.8-1.3-1.1-2l0,0c0,0.8,0.1,1.5,0.1,2.5v2.5H45.5z"/>
	<path class="st2" d="M55.4,53v3.4c0,0.3,0,0.5,0,0.7h-0.5l0-0.5h0c-0.2,0.3-0.5,0.6-1,0.6c-0.7,0-1.2-0.6-1.2-1.4
		c0-0.9,0.6-1.5,1.3-1.5c0.4,0,0.7,0.2,0.9,0.4h0V53H55.4z M54.8,55.5c0-0.1,0-0.2,0-0.2c-0.1-0.3-0.4-0.6-0.7-0.6
		c-0.5,0-0.9,0.5-0.9,1.1c0,0.6,0.3,1.1,0.8,1.1c0.3,0,0.7-0.2,0.8-0.6c0-0.1,0-0.1,0-0.2V55.5z"/>
	<path class="st2" d="M56.5,55.9c0,0.7,0.5,1,1,1c0.4,0,0.6-0.1,0.8-0.1l0.1,0.4c-0.2,0.1-0.5,0.2-0.9,0.2c-0.9,0-1.4-0.6-1.4-1.4
		s0.5-1.5,1.3-1.5c0.9,0,1.2,0.8,1.2,1.3c0,0.1,0,0.2,0,0.2H56.5z M58,55.5c0-0.3-0.1-0.8-0.7-0.8c-0.5,0-0.8,0.5-0.8,0.8H58z"/>
	<path class="st2" d="M59.2,53h0.5v4.2h-0.5V53z"/>
	<path class="st2" d="M21,61.9c0.4-0.1,0.9-0.1,1.5-0.1c0.8,0,1.3,0.2,1.7,0.5c0.3,0.3,0.5,0.7,0.5,1.2c0,0.5-0.2,1-0.5,1.3
		c-0.4,0.4-1.1,0.7-1.8,0.7c-0.2,0-0.4,0-0.6-0.1v2.4H21V61.9z M21.8,64.8c0.2,0,0.4,0.1,0.6,0.1c0.9,0,1.5-0.5,1.5-1.3
		c0-0.8-0.6-1.2-1.4-1.2c-0.3,0-0.6,0-0.7,0.1V64.8z"/>
	<path class="st2" d="M25.7,62c0.4-0.1,0.9-0.1,1.5-0.1c0.8,0,1.4,0.2,1.7,0.5c0.3,0.3,0.5,0.7,0.5,1.1c0,0.8-0.5,1.3-1.1,1.5v0
		c0.5,0.2,0.7,0.6,0.9,1.2c0.2,0.8,0.3,1.4,0.5,1.6h-0.8c-0.1-0.2-0.2-0.7-0.4-1.4c-0.2-0.8-0.5-1.1-1.2-1.2h-0.7v2.6h-0.8V62z
		 M26.5,64.7h0.8c0.8,0,1.3-0.5,1.3-1.1c0-0.8-0.6-1.1-1.4-1.1c-0.4,0-0.6,0-0.8,0.1V64.7z"/>
	<path class="st2" d="M35.6,64.8c0,2-1.2,3.1-2.8,3.1c-1.6,0-2.7-1.2-2.7-3c0-1.9,1.2-3.1,2.8-3.1C34.5,61.8,35.6,63,35.6,64.8z
		 M30.9,64.9c0,1.3,0.7,2.4,1.9,2.4c1.2,0,1.9-1.1,1.9-2.5c0-1.2-0.6-2.4-1.9-2.4C31.6,62.4,30.9,63.6,30.9,64.9z"/>
	<path class="st2" d="M37.6,67.8v-2.5l-1.9-3.4h0.9l0.8,1.6c0.2,0.5,0.4,0.8,0.6,1.2h0c0.2-0.4,0.4-0.8,0.6-1.2l0.9-1.6h0.9l-2,3.4
		v2.5H37.6z"/>
	<path class="st2" d="M44.1,65h-2.3v2.1h2.6v0.6H41v-6h3.2v0.6h-2.4v1.9h2.3V65z"/>
	<path class="st2" d="M49.5,67.6c-0.3,0.1-0.8,0.3-1.6,0.3c-1.7,0-2.9-1.1-2.9-3c0-1.9,1.3-3.1,3.1-3.1c0.7,0,1.2,0.2,1.4,0.3
		l-0.2,0.6c-0.3-0.1-0.7-0.2-1.2-0.2c-1.4,0-2.3,0.9-2.3,2.5c0,1.5,0.8,2.4,2.3,2.4c0.5,0,0.9-0.1,1.3-0.2L49.5,67.6z"/>
	<path class="st2" d="M51.9,62.5h-1.8v-0.7h4.4v0.7h-1.8v5.3h-0.8V62.5z"/>
	<path class="st2" d="M60,64.8c0,2-1.2,3.1-2.8,3.1c-1.6,0-2.7-1.2-2.7-3c0-1.9,1.2-3.1,2.8-3.1C58.9,61.8,60,63,60,64.8z
		 M55.4,64.9c0,1.3,0.7,2.4,1.9,2.4c1.2,0,1.9-1.1,1.9-2.5c0-1.2-0.6-2.4-1.9-2.4C56,62.4,55.4,63.6,55.4,64.9z"/>
</g>
<g>
	<g>
		<path class="st3" d="M5.3,60.3l5.6-2.9v0.8l-4.7,2.4v0l4.7,2.4v0.8l-5.6-2.9V60.3z"/>
	</g>
</g>
<g>
	<g>
		<path class="st3" d="M76.2,60.5l-5.6,2.9v-0.8l4.7-2.4v0l-4.7-2.4V57l5.6,2.9V60.5z"/>
	</g>
</g>
</svg>
